<svg width="22" height="22" viewBox="0 0 22 22" fill="none" xmlns="http://www.w3.org/2000/svg">
<g id="el:ok-circle" clip-path="url(#clip0_79_198)">
<path id="Vector" d="M11 0C4.92488 0 0 4.92488 0 11C0 17.0751 4.92488 22 11 22C17.0751 22 22 17.0751 22 11C22 4.92488 17.0751 0 11 0ZM11 2.39014C15.7551 2.39014 19.6085 6.24609 19.6085 11C19.6085 15.7539 15.7551 19.6085 11 19.6085C6.24488 19.6085 2.39147 15.7539 2.39147 11C2.39149 6.24609 6.24488 2.39014 11 2.39014ZM15.215 5.77661L8.83947 12.1534L6.7716 10.0856L4.74267 12.1132L6.81054 14.181L8.85289 16.2234L10.8805 14.1945L17.2573 7.81896L15.215 5.77661Z" fill="white"/>
</g>
<defs>
<clipPath id="clip0_79_198">
<rect width="22" height="22" fill="white"/>
</clipPath>
</defs>
</svg>
