<svg width="38" height="38" viewBox="0 0 38 38" fill="none" xmlns="http://www.w3.org/2000/svg">
<g id="iconamoon:home-bold">
<path id="Vector" d="M26.6462 17.1465C26.6462 16.9943 26.6163 16.8437 26.558 16.7031C26.4998 16.5626 26.4145 16.4348 26.3069 16.3273C26.1993 16.2197 26.0716 16.1344 25.931 16.0761C25.7905 16.0179 25.6398 15.9879 25.4877 15.9879C25.3356 15.9879 25.1849 16.0179 25.0444 16.0761C24.9038 16.1344 24.7761 16.2197 24.6685 16.3273C24.5609 16.4348 24.4756 16.5626 24.4174 16.7031C24.3591 16.8437 24.3292 16.9943 24.3292 17.1465H26.6462ZM13.6708 17.1465C13.6708 16.8392 13.5488 16.5445 13.3315 16.3273C13.1142 16.11 12.8196 15.9879 12.5123 15.9879C12.205 15.9879 11.9104 16.11 11.6931 16.3273C11.4758 16.5445 11.3538 16.8392 11.3538 17.1465H13.6708ZM26.522 19.8194C26.7393 20.0367 27.034 20.1588 27.3413 20.1588C27.6486 20.1588 27.9433 20.0367 28.1606 19.8194C28.3779 19.6021 28.5 19.3074 28.5 19.0001C28.5 18.6928 28.3779 18.3981 28.1606 18.1808L26.522 19.8194ZM19 10.6587L19.8193 9.83943C19.7117 9.73182 19.584 9.64646 19.4434 9.58822C19.3028 9.52998 19.1522 9.5 19 9.5C18.8478 9.5 18.6972 9.52998 18.5566 9.58822C18.416 9.64646 18.2883 9.73182 18.1807 9.83943L19 10.6587ZM9.83937 18.1808C9.62207 18.3981 9.5 18.6928 9.5 19.0001C9.5 19.3074 9.62207 19.6021 9.83937 19.8194C10.0567 20.0367 10.3514 20.1588 10.6587 20.1588C10.966 20.1588 11.2607 20.0367 11.478 19.8194L9.83937 18.1808ZM14.3659 28.5H23.6341V26.183H14.3659V28.5ZM26.6462 25.4878V17.1465H24.3292V25.4878H26.6462ZM13.6708 25.4878V17.1465H11.3538V25.4878H13.6708ZM28.1606 18.1808L19.8193 9.83943L18.1807 11.478L26.522 19.8194L28.1606 18.1808ZM18.1807 9.83943L9.83937 18.1808L11.478 19.8194L19.8193 11.478L18.1807 9.83943ZM23.6341 28.5C24.4329 28.5 25.1991 28.1826 25.764 27.6178C26.3289 27.0529 26.6462 26.2867 26.6462 25.4878H24.3292C24.3292 25.6722 24.2559 25.849 24.1256 25.9794C23.9952 26.1097 23.8184 26.183 23.6341 26.183V28.5ZM14.3659 26.183C14.1816 26.183 14.0048 26.1097 13.8744 25.9794C13.7441 25.849 13.6708 25.6722 13.6708 25.4878H11.3538C11.3538 26.2867 11.6711 27.0529 12.236 27.6178C12.8009 28.1826 13.5671 28.5 14.3659 28.5V26.183Z" fill="white"/>
</g>
</svg>
