<svg width="26" height="26" viewBox="0 0 26 26" fill="none" xmlns="http://www.w3.org/2000/svg">
<g id="material-symbols:cancel-outline">
<path id="Vector" d="M9.09996 18.4167L13 14.5167L16.9 18.4167L18.4166 16.9L14.5166 13L18.4166 9.09999L16.9 7.58332L13 11.4833L9.09996 7.58332L7.58329 9.09999L11.4833 13L7.58329 16.9L9.09996 18.4167ZM13 23.8333C11.5013 23.8333 10.093 23.5488 8.77496 22.9797C7.4569 22.4105 6.31038 21.6389 5.33538 20.6646C4.36038 19.6896 3.58868 18.543 3.02029 17.225C2.4519 15.9069 2.16735 14.4986 2.16663 13C2.16663 11.5014 2.45118 10.093 3.02029 8.77499C3.5894 7.45693 4.3611 6.31041 5.33538 5.33541C6.31038 4.36041 7.4569 3.58871 8.77496 3.02032C10.093 2.45193 11.5013 2.16738 13 2.16666C14.4986 2.16666 15.9069 2.45121 17.225 3.02032C18.543 3.58943 19.6895 4.36113 20.6645 5.33541C21.6395 6.31041 22.4116 7.45693 22.9807 8.77499C23.5498 10.093 23.834 11.5014 23.8333 13C23.8333 14.4986 23.5487 15.9069 22.9796 17.225C22.4105 18.543 21.6388 19.6896 20.6645 20.6646C19.6895 21.6396 18.543 22.4116 17.225 22.9807C15.9069 23.5498 14.4986 23.834 13 23.8333ZM13 21.6667C15.4194 21.6667 17.4687 20.8271 19.1479 19.1479C20.827 17.4687 21.6666 15.4194 21.6666 13C21.6666 10.5805 20.827 8.53124 19.1479 6.85207C17.4687 5.17291 15.4194 4.33332 13 4.33332C10.5805 4.33332 8.53121 5.17291 6.85204 6.85207C5.17288 8.53124 4.33329 10.5805 4.33329 13C4.33329 15.4194 5.17288 17.4687 6.85204 19.1479C8.53121 20.8271 10.5805 21.6667 13 21.6667Z" fill="white"/>
</g>
</svg>
