<svg width="73" height="73" viewBox="0 0 73 73" fill="none" xmlns="http://www.w3.org/2000/svg">
<g id="mingcute:entrance-fill" clip-path="url(#clip0_79_86)">
<g id="Group">
<path id="Vector" d="M36.5 7.60417C37.6717 7.60475 38.7983 8.05609 39.6463 8.86467C40.4943 9.67324 40.9987 10.7771 41.055 11.9474C41.1113 13.1178 40.7152 14.2649 39.9487 15.1512C39.1823 16.0374 38.1042 16.5948 36.938 16.7079L36.5 16.7292H21.2917C20.9357 16.7291 20.591 16.8538 20.3175 17.0817C20.0441 17.3095 19.8592 17.6261 19.7952 17.9763L19.7708 18.25V54.75C19.7707 55.106 19.8955 55.4507 20.1233 55.7241C20.3512 55.9976 20.6678 56.1824 21.0179 56.2465L21.2917 56.2708H34.9792C36.1509 56.2714 37.2774 56.7228 38.1254 57.5313C38.9734 58.3399 39.4778 59.4437 39.5341 60.6141C39.5904 61.7844 39.1943 62.9316 38.4279 63.8178C37.6614 64.7041 36.5834 65.2615 35.4172 65.3745L34.9792 65.3958H21.2917C18.5692 65.396 15.9501 64.3532 13.9728 62.4818C11.9955 60.6103 10.8104 58.0524 10.661 55.334L10.6458 54.75V18.25C10.6456 15.5275 11.6885 12.9084 13.5599 10.9311C15.4314 8.95386 17.9893 7.76873 20.7077 7.61938L21.2917 7.60417H36.5ZM42.4008 24.6679C43.2275 23.8383 44.3416 23.3583 45.5124 23.3274C46.6832 23.2964 47.821 23.717 48.6904 24.5018C49.5597 25.2867 50.0938 26.3758 50.1823 27.5437C50.2707 28.7116 49.9067 29.8687 49.1655 30.7756L48.8522 31.1223L48.037 31.9375H60.8333C62.005 31.9381 63.1316 32.3894 63.9796 33.198C64.8276 34.0066 65.332 35.1104 65.3883 36.2807C65.4446 37.4511 65.0485 38.5982 64.2821 39.4845C63.5156 40.3707 62.4376 40.9282 61.2713 41.0412L60.8333 41.0625H48.037L48.8522 41.8777C49.6819 42.7043 50.1619 43.8184 50.1928 44.9892C50.2237 46.16 49.8032 47.2979 49.0183 48.1672C48.2334 49.0365 47.1443 49.5707 45.9764 49.6591C44.8085 49.7476 43.6514 49.3835 42.7445 48.6423L42.3978 48.329L33.796 39.7272C32.9968 38.9286 32.5224 37.8619 32.4645 36.7336C32.4066 35.6054 32.7694 34.4957 33.4827 33.6195L33.796 33.2728L42.3978 24.671L42.4008 24.6679Z" fill="white"/>
</g>
</g>
<defs>
<clipPath id="clip0_79_86">
<rect width="73" height="73" fill="white"/>
</clipPath>
</defs>
</svg>
