<svg width="73" height="73" viewBox="0 0 73 73" fill="none" xmlns="http://www.w3.org/2000/svg">
<g id="mingcute:exit-fill" clip-path="url(#clip0_79_91)">
<g id="Group">
<path id="Vector" d="M36.5 7.60417C37.7101 7.60417 38.8705 8.08486 39.7262 8.9405C40.5818 9.79613 41.0625 10.9566 41.0625 12.1667C41.0625 13.3767 40.5818 14.5372 39.7262 15.3928C38.8705 16.2485 37.7101 16.7292 36.5 16.7292H21.2917C20.8883 16.7292 20.5015 16.8894 20.2163 17.1746C19.9311 17.4598 19.7708 17.8467 19.7708 18.25V54.75C19.7708 55.1534 19.9311 55.5402 20.2163 55.8254C20.5015 56.1106 20.8883 56.2708 21.2917 56.2708H34.9792C36.1892 56.2708 37.3497 56.7515 38.2053 57.6072C39.061 58.4628 39.5417 59.6233 39.5417 60.8333C39.5417 62.0434 39.061 63.2039 38.2053 64.0595C37.3497 64.9151 36.1892 65.3958 34.9792 65.3958H21.2917C18.4682 65.3958 15.7604 64.2742 13.7639 62.2777C11.7674 60.2813 10.6458 57.5735 10.6458 54.75V18.25C10.6458 15.4266 11.7674 12.7187 13.7639 10.7223C15.7604 8.72578 18.4682 7.60417 21.2917 7.60417H36.5ZM54.9325 24.6679L63.5374 33.2758C64.3918 34.1313 64.8717 35.2909 64.8717 36.5C64.8717 37.7091 64.3918 38.8687 63.5374 39.7242L54.9355 48.3321C54.0796 49.188 52.9188 49.6688 51.7083 49.6688C50.4979 49.6688 49.337 49.188 48.4811 48.3321C47.6252 47.4762 47.1444 46.3153 47.1444 45.1049C47.1444 43.8944 47.6252 42.7336 48.4811 41.8777L49.2963 41.0625H36.5C35.29 41.0625 34.1295 40.5818 33.2738 39.7262C32.4182 38.8705 31.9375 37.7101 31.9375 36.5C31.9375 35.29 32.4182 34.1295 33.2738 33.2738C34.1295 32.4182 35.29 31.9375 36.5 31.9375H49.2963L48.4811 31.1223C48.0575 30.6985 47.7215 30.1954 47.4924 29.6418C47.2632 29.0882 47.1453 28.4948 47.1454 27.8956C47.1456 27.2964 47.2638 26.7031 47.4932 26.1495C47.7226 25.596 48.0588 25.093 48.4826 24.6694C48.9064 24.2458 49.4095 23.9099 49.9632 23.6807C50.5168 23.4515 51.1102 23.3336 51.7094 23.3338C52.3086 23.3339 52.9019 23.4521 53.4555 23.6815C54.009 23.9109 54.5119 24.2472 54.9355 24.671L54.9325 24.6679Z" fill="white"/>
</g>
</g>
<defs>
<clipPath id="clip0_79_91">
<rect width="73" height="73" fill="white"/>
</clipPath>
</defs>
</svg>
