<svg width="102" height="102" viewBox="0 0 102 102" fill="none" xmlns="http://www.w3.org/2000/svg">
<g id="tabler:scan">
<path id="Vector" d="M17 29.75V25.5C17 23.2457 17.8955 21.0837 19.4896 19.4896C21.0837 17.8955 23.2457 17 25.5 17H34M17 72.25V76.5C17 78.7543 17.8955 80.9163 19.4896 82.5104C21.0837 84.1045 23.2457 85 25.5 85H34M68 17H76.5C78.7543 17 80.9163 17.8955 82.5104 19.4896C84.1045 21.0837 85 23.2457 85 25.5V29.75M68 85H76.5C78.7543 85 80.9163 84.1045 82.5104 82.5104C84.1045 80.9163 85 78.7543 85 76.5V72.25M21.25 51H80.75" stroke="black" stroke-width="10" stroke-linecap="round" stroke-linejoin="round"/>
</g>
</svg>
